# xmcd
#
# Track frame offsets: 
#        150
#        17132
#        38727
#        58805
#
# Disc length: 1182 seconds
#
# Revision: 0
# Processed by: cddbd v1.5.2PL0 Copyright (c) Steve Scherf et al.
# Submitted via: ExactAudioCopyFreeDBPlugin 1.0
#
DISCID=2d049c04
DTITLE=Quake Featuring Marcia Rae - The Day Will Come
DYEAR=1998
DGENRE=Dance
TTITLE0=The Day Will Come (Quake's Radio Version)
TTITLE1=The Day Will Come (Judge Jules Vocal Mix CD Edit)
TTITLE2=The Day Will Come (TransLucid Dub CD Edit)
TTITLE3=The Day Will Come (Quake's Vocal Mix CD Edit)
EXTD=
EXTT0=
EXTT1=
EXTT2=
EXTT3=
PLAYORDER=
